<?xml version="1.0" standalone="no"?>
<!DOCTYPE svg PUBLIC "-//W3C//DTD SVG 20010904//EN"
 "http://www.w3.org/TR/2001/REC-SVG-20010904/DTD/svg10.dtd">
<svg version="1.0" xmlns="http://www.w3.org/2000/svg"
 width="1235.000000pt" height="271.000000pt" viewBox="0 0 1235.000000 271.000000"
 preserveAspectRatio="xMidYMid meet">

<g transform="translate(0.000000,271.000000) scale(0.100000,-0.100000)"
fill="#000000" stroke="none">
<path d="M4580 2675 c-30 -19 -59 -35 -65 -35 -5 0 -20 -9 -33 -19 -19 -16
-21 -23 -12 -46 7 -18 15 -25 26 -21 8 3 12 2 9 -4 -10 -17 -34 -11 -45 10
-11 20 -13 20 -78 -16 -81 -44 -196 -107 -199 -109 -1 0 65 -266 146 -590 139
-555 150 -590 171 -593 18 -3 21 0 16 13 -3 9 -63 245 -132 523 -69 279 -131
518 -136 532 -14 36 -1 20 42 -54 30 -51 48 -104 85 -258 134 -548 162 -659
168 -665 10 -10 8 78 -2 114 -6 21 -6 33 1 35 7 3 14 128 19 356 6 251 13 359
21 375 18 30 20 -138 10 -676 -6 -368 -3 -472 12 -395 2 13 9 265 14 561 8
473 11 540 25 554 15 15 17 15 23 0 3 -10 2 -257 -3 -550 -5 -292 -7 -534 -6
-536 12 -17 15 46 20 321 9 607 17 798 33 808 11 7 17 4 21 -9 4 -9 3 -179 -1
-377 -15 -639 -15 -737 -2 -742 9 -3 12 42 12 185 0 386 15 949 26 977 3 9 13
16 22 16 13 0 14 -53 7 -497 -4 -274 -9 -576 -10 -672 -1 -170 -2 -174 -25
-193 -19 -15 -36 -19 -76 -16 -38 2 -50 0 -43 -8 6 -7 6 -140 2 -340 -8 -321
-8 -329 -28 -326 -11 2 -21 5 -22 6 -1 1 1 157 5 347 6 238 5 350 -2 364 -10
18 -11 18 -14 -10 -2 -16 -7 -32 -11 -35 -5 -3 -11 -22 -14 -42 -4 -27 -2 -40
8 -46 12 -6 13 -53 8 -290 -6 -251 -8 -282 -22 -278 -9 3 -73 10 -143 17 -367
34 -698 -72 -1018 -328 -12 -10 177 -12 892 -13 961 0 937 -1 869 45 -16 10
-28 22 -26 25 1 3 6 189 9 415 4 226 9 427 12 447 6 38 6 38 29 20 23 -17 24
-20 28 -252 6 -257 12 -321 33 -333 8 -4 14 -18 15 -30 1 -16 3 -13 10 12 6
18 12 31 15 28 3 -2 5 -88 5 -191 -1 -115 3 -186 9 -186 6 0 10 22 10 49 0 60
10 111 21 111 5 0 8 -3 7 -7 -1 -5 2 -25 6 -45 9 -42 35 -52 37 -15 3 56 18
125 30 132 4 3 13 -4 20 -16 9 -17 13 -19 20 -8 8 12 10 12 18 -1 5 -8 7 -18
4 -24 -3 -5 -1 -6 5 -2 7 4 12 2 12 -3 0 -6 4 -11 10 -11 5 0 13 18 16 41 4
23 10 36 14 29 4 -7 16 -9 29 -5 18 5 21 2 21 -21 0 -34 10 -25 19 17 5 27 11
32 39 34 17 2 32 -1 32 -6 0 -5 4 -9 10 -9 5 0 7 6 4 14 -3 8 0 17 6 21 7 4
14 -2 17 -14 5 -21 33 -30 33 -11 0 5 10 14 22 21 18 10 20 9 14 -6 -5 -13 -2
-16 9 -11 8 3 22 9 30 12 8 3 15 1 15 -4 0 -8 9 -8 30 -1 17 6 30 15 30 20 0
5 5 9 12 9 6 0 8 -3 5 -6 -3 -4 -1 -16 5 -27 11 -21 11 -21 21 3 5 15 11 20
14 13 3 -7 13 -13 24 -13 20 0 59 -33 59 -51 0 -6 6 -9 13 -7 12 5 38 249 29
276 -6 16 -22 15 -22 -2 0 -10 -25 -15 -97 -20 -145 -9 -653 -11 -654 -3 -3
31 40 34 501 38 l285 2 5 -49 6 -49 8 52 c7 50 9 53 32 47 13 -4 38 0 55 7 28
11 32 10 41 -6 7 -12 13 -14 17 -6 5 8 69 13 197 16 523 13 624 14 623 7 -1
-4 0 -16 1 -27 2 -17 3 -16 9 5 6 22 14 26 61 31 30 3 58 4 63 2 4 -2 7 -32 7
-65 0 -34 3 -59 6 -55 3 3 6 25 6 49 0 25 3 50 7 56 5 8 120 13 394 18 341 6
387 5 387 -8 0 -19 -160 -28 -514 -29 -187 0 -241 2 -248 13 -5 8 -6 -41 -2
-122 6 -128 14 -187 14 -107 0 35 1 36 20 25 11 -7 19 -19 17 -27 -1 -9 6 -17
15 -19 12 -2 23 8 34 32 19 38 60 60 49 25 -4 -13 -2 -19 9 -19 9 0 17 5 17
10 1 6 2 16 3 22 1 15 30 17 64 6 16 -5 31 -3 45 7 20 14 11 15 -98 17 l-120
2 120 6 c66 4 208 7 315 7 107 -1 169 -2 138 -4 -65 -4 -80 -23 -18 -23 l40 0
1 -47 c0 -36 3 -43 9 -28 5 11 9 31 9 45 1 18 7 26 21 27 16 1 20 -4 20 -28 0
-16 5 -29 10 -29 6 0 10 9 10 20 0 11 5 20 11 20 6 0 8 -7 5 -16 -3 -8 -2 -12
4 -9 6 3 10 30 11 58 1 29 5 63 9 77 5 14 8 -73 9 -202 l1 -228 29 0 30 0 3
469 c2 258 6 472 9 476 4 3 19 3 34 -1 l28 -7 -7 -468 c-4 -291 -4 -469 2
-469 6 0 12 188 16 468 4 257 9 473 12 480 2 8 12 12 21 10 17 -3 18 -33 14
-481 -2 -332 0 -477 8 -477 10 0 17 475 20 1450 1 245 5 627 9 850 5 223 7
407 5 409 -2 2 -6 2 -9 -2 -7 -6 -23 -920 -24 -1386 l-1 -293 -24 -24 c-26
-26 -89 -33 -124 -14 -17 8 -19 4 -24 -48 -2 -31 -1 -61 4 -66 5 -6 9 -54 9
-107 0 -76 -3 -98 -15 -102 -24 -10 -27 8 -24 123 2 68 0 110 -6 110 -6 0 -11
-50 -13 -120 -2 -112 -4 -120 -22 -120 -19 0 -20 7 -20 145 0 122 2 145 15
145 19 0 19 29 0 54 -20 27 -20 155 0 182 20 26 19 44 -3 44 -15 0 -54 -45
-95 -107 -4 -6 4 -25 19 -43 29 -34 43 -35 22 -1 -11 18 -10 23 6 38 18 17 18
16 14 -34 -4 -42 -1 -57 13 -72 23 -24 24 -31 4 -31 -13 0 -15 -24 -15 -160 0
-153 -1 -160 -20 -160 -19 0 -20 7 -20 189 0 116 -4 192 -10 196 -7 4 -10 -62
-10 -189 0 -189 -1 -196 -20 -196 -19 0 -20 7 -20 206 0 154 3 203 12 198 8
-5 9 -2 5 10 -4 10 -7 20 -7 22 0 2 -16 4 -35 4 l-35 0 0 -60 c0 -47 -3 -60
-15 -60 -13 0 -15 -24 -15 -160 0 -153 -1 -160 -20 -160 -20 0 -20 7 -20 358
0 197 3 362 7 365 17 17 33 -19 33 -74 0 -33 4 -59 10 -59 6 0 10 30 10 71 0
61 2 70 16 65 9 -3 18 -6 20 -6 2 0 4 -32 4 -71 0 -49 -4 -75 -15 -85 -8 -9
-15 -33 -15 -55 0 -37 2 -39 30 -39 l29 0 3 140 c3 121 5 138 18 130 11 -7 16
-34 18 -110 5 -128 22 -121 22 9 0 102 3 113 26 104 10 -4 14 -25 14 -79 0
-43 4 -74 10 -74 6 0 10 20 10 44 0 63 11 106 26 106 15 0 16 -7 20 -125 3
-97 3 -97 14 -90 6 3 10 50 10 106 0 75 4 104 15 115 13 13 15 12 21 -11 3
-14 3 -68 0 -120 -6 -82 -5 -95 9 -95 13 0 15 30 15 238 0 130 3 474 6 765 l6
527 -26 0 -26 0 -1 -192 c0 -106 -3 -240 -5 -297 -3 -58 -2 -112 2 -120 7 -18
6 -364 -2 -488 -5 -71 -3 -83 10 -83 9 0 16 -6 16 -14 0 -18 -153 -23 -1148
-39 -720 -12 -744 -13 -758 -32 -8 -11 -11 -26 -7 -35 4 -8 9 -60 11 -115 1
-55 5 -107 9 -115 10 -23 20 34 22 115 1 62 3 67 15 50 27 -39 31 -206 5 -189
-5 3 -9 -36 -9 -85 0 -81 -10 -114 -23 -78 -4 9 -7 9 -18 0 -7 -7 -32 -13 -56
-13 l-43 0 -2 -177 c-3 -166 -4 -178 -22 -181 -19 -4 -19 5 -12 344 8 399 25
1500 26 1647 0 53 -4 97 -9 97 -4 0 -12 -206 -16 -457 -15 -949 -20 -1106 -33
-1111 -6 -2 -12 -11 -12 -21 0 -9 -5 -22 -10 -27 -8 -8 -6 -15 5 -24 19 -16
19 -54 -1 -74 -11 -11 -35 -16 -80 -16 -49 0 -64 -3 -64 -14 0 -8 5 -18 10
-21 6 -4 10 -70 10 -166 0 -152 -1 -159 -20 -159 -19 0 -20 7 -20 193 0 105 4
395 10 642 19 931 22 1255 13 1255 -6 0 -14 -270 -21 -667 -14 -728 -18 -824
-35 -818 -15 6 -34 -10 -75 -63 -38 -48 -37 -52 29 -123 19 -19 28 -28 22 -19
-7 9 -13 41 -13 71 0 43 6 63 25 89 l25 34 0 -105 c0 -68 -4 -109 -12 -117
-24 -24 -48 -12 -91 48 -36 52 -46 60 -74 60 l-33 0 -1 -62 c0 -35 0 -145 1
-246 l1 -184 -23 4 c-26 3 -25 -93 -8 743 5 248 12 641 16 875 3 234 7 437 9
453 1 16 -2 27 -10 27 -14 0 -17 -85 -36 -1170 -5 -333 -12 -625 -14 -650 -2
-25 -4 -98 -4 -162 -1 -111 -2 -118 -21 -118 -19 0 -20 5 -15 138 2 75 7 304
10 507 3 204 10 613 16 909 5 296 7 541 4 544 -3 3 -7 3 -10 1 -2 -3 -9 -266
-15 -584 -6 -319 -15 -751 -20 -960 -6 -209 -10 -419 -10 -467 l0 -88 -26 0
-26 0 6 193 c6 174 13 544 32 1560 5 288 4 347 -8 347 -10 0 -13 -39 -15 -193
-1 -105 -7 -491 -13 -857 -10 -555 -15 -668 -27 -682 -10 -11 -11 -18 -4 -23
7 -4 11 -67 11 -176 0 -167 0 -169 -22 -169 l-21 0 6 302 c4 167 11 589 17
938 10 677 16 828 32 848 8 9 -10 12 -88 12 l-98 0 -121 -67 c-139 -77 -349
-195 -588 -330 -92 -52 -174 -93 -181 -90 -13 5 -89 139 -102 179 -3 12 6 22
38 37 24 11 66 32 93 47 85 45 83 44 89 28 3 -9 6 -27 6 -40 0 -13 5 -24 10
-24 6 0 10 7 10 15 0 28 22 63 49 76 14 8 42 26 61 41 19 16 42 28 52 28 11 0
32 -26 58 -70 22 -38 43 -70 46 -70 9 0 -7 40 -42 101 -38 68 -41 79 -19 79
15 0 125 49 125 56 0 2 -39 4 -87 4 -83 0 -91 -2 -143 -35z m786 -332 c-3
-181 -9 -449 -11 -598 -10 -519 -15 -616 -32 -600 -12 13 -14 66 -13 334 0
175 3 329 5 342 3 12 5 174 6 358 3 424 6 482 25 474 8 -3 14 0 14 6 0 6 3 11
7 11 3 0 3 -147 -1 -327z m-76 -476 c-11 -629 -11 -690 4 -706 12 -13 16 -38
16 -98 l0 -80 -71 -2 c-39 -1 -77 3 -84 9 -10 8 -11 56 -8 203 5 181 6 193 27
209 11 10 24 18 28 18 4 0 9 -52 10 -115 2 -68 7 -115 13 -115 6 0 13 159 17
442 14 784 21 977 38 988 12 8 16 2 19 -28 2 -20 -2 -347 -9 -725z m-63 226
c-4 -285 -7 -548 -7 -585 l0 -68 -35 0 -36 0 6 423 c4 232 8 449 10 482 2 33
4 97 4 143 1 65 4 82 16 82 8 0 19 9 25 20 6 11 14 20 17 20 3 0 3 -233 0
-517z m-96 -313 c-6 -327 -12 -631 -13 -675 l-1 -80 -6 63 c-9 93 -26 81 -29
-20 -2 -66 -6 -88 -16 -88 -11 0 -15 -80 -21 -425 -4 -234 -9 -425 -12 -425
-2 0 -13 5 -24 11 -18 9 -20 18 -15 77 3 37 8 224 11 415 6 321 8 351 26 380
21 36 27 117 6 83 -7 -10 -27 -38 -45 -61 -22 -30 -28 -46 -20 -51 8 -5 9
-109 4 -408 -4 -220 -9 -402 -11 -405 -3 -2 -12 2 -21 10 -15 12 -16 43 -10
329 11 564 13 509 -20 565 l-29 50 -3 -71 c-2 -60 -6 -73 -21 -77 -17 -4 -19
-16 -20 -108 0 -57 -4 -222 -7 -367 -6 -223 -9 -262 -21 -258 -8 4 -18 6 -23
6 -5 0 -7 48 -4 108 2 59 6 223 8 364 3 214 7 261 20 280 20 29 20 71 0 111
-15 27 -16 62 -10 287 3 140 8 388 11 550 3 162 8 328 11 368 5 64 8 72 26 72
21 0 21 -1 15 -277 -19 -798 -20 -933 -9 -933 7 0 12 8 13 18 0 9 6 288 13
620 13 621 13 621 50 622 5 0 6 -133 2 -322 -3 -178 -9 -465 -12 -638 -4 -173
-10 -316 -15 -318 -10 -4 10 -50 38 -87 16 -22 22 -25 23 -13 0 9 -4 20 -10
23 -12 7 -12 429 -1 972 6 292 11 376 22 389 12 15 14 14 20 -9 4 -14 3 -250
-2 -524 -11 -689 -11 -829 1 -817 13 13 17 137 25 754 3 278 8 535 11 572 6
66 24 102 39 77 4 -6 5 -109 1 -228 -13 -474 -18 -1096 -8 -1086 6 6 14 267
21 670 7 363 15 669 18 680 3 11 11 23 17 27 17 11 18 -127 7 -782z m2429
-589 c0 -145 2 -171 15 -171 13 0 15 27 15 181 0 138 3 180 12 177 21 -7 26
-47 27 -214 l1 -160 -35 -14 -35 -14 0 -163 c0 -153 -1 -163 -19 -163 -18 0
-19 12 -16 368 1 202 3 368 4 370 0 2 8 -3 16 -12 12 -12 15 -47 15 -185z
m134 94 c4 -51 6 -212 5 -358 -2 -266 -3 -277 -35 -277 -2 0 -4 166 -4 370 0
308 2 369 14 364 9 -4 15 -34 20 -99z m-1379 46 c4 -27 6 -69 5 -93 -1 -23 -1
-47 0 -53 1 -5 2 -13 1 -17 0 -5 4 -8 9 -8 6 0 10 44 10 112 0 107 1 111 17
95 13 -13 19 -38 21 -97 2 -44 8 -80 12 -80 5 0 12 37 16 82 5 56 10 76 15 63
4 -11 9 -15 10 -10 2 6 5 -26 8 -69 4 -49 11 -81 18 -83 9 -3 13 22 15 94 2
79 6 98 18 98 12 0 16 -18 18 -92 4 -140 32 -118 32 24 0 59 3 71 15 67 11 -4
15 -27 17 -90 4 -101 22 -113 26 -17 3 95 9 118 27 103 10 -8 15 -38 17 -93 4
-108 22 -102 26 9 2 60 6 84 15 81 16 -5 28 -72 25 -137 l-3 -55 -40 -5 -40
-5 -5 -95 c-4 -70 -2 -99 7 -111 10 -12 13 -54 11 -168 l-3 -151 -23 0 -24 0
2 173 c1 94 2 213 1 264 l-1 92 -40 -1 c-44 0 -50 -9 -48 -74 1 -51 -15 -82
-48 -94 -33 -13 -80 -13 -105 0 -17 10 -19 7 -19 -34 0 -25 -4 -48 -10 -51 -6
-4 -10 -63 -10 -146 l0 -139 -26 0 -26 0 7 368 c4 202 8 373 10 380 3 6 11 12
19 12 9 0 16 -16 21 -49z m755 5 c0 -62 13 -156 21 -156 5 0 9 35 10 78 1 94
8 117 34 117 26 0 32 -27 34 -132 0 -48 5 -83 11 -83 6 0 10 41 10 103 0 57 3
106 6 110 3 3 12 3 20 0 11 -4 14 -31 14 -124 0 -91 -3 -117 -12 -114 -10 4
-12 -9 -10 -49 3 -48 1 -56 -25 -80 -24 -23 -35 -27 -73 -23 -25 2 -53 7 -62
11 -16 7 -18 2 -18 -43 0 -28 -4 -51 -10 -51 -6 0 -10 -50 -10 -130 0 -123 -1
-130 -20 -130 -19 0 -20 7 -20 243 0 326 9 487 26 480 9 -3 14 -31 16 -91 2
-57 7 -87 16 -90 9 -3 12 18 12 81 0 47 3 92 6 101 10 25 24 8 24 -28z m-309
9 c5 4 9 -57 9 -149 0 -86 4 -156 9 -156 16 0 21 49 15 143 -8 112 1 187 22
187 11 0 14 -24 14 -132 0 -102 3 -129 12 -120 7 7 13 57 16 127 4 89 8 115
18 115 11 0 14 -20 14 -91 0 -68 3 -90 13 -87 8 3 13 33 15 91 2 68 6 87 17
87 12 0 15 -19 15 -101 0 -62 -4 -98 -10 -94 -5 3 -10 -33 -12 -92 -3 -84 -5
-98 -19 -95 -21 3 -29 -59 -29 -220 0 -65 -2 -118 -4 -118 -2 0 -12 -3 -21 -7
-16 -6 -17 8 -10 188 6 167 10 197 25 214 22 24 35 71 23 78 -5 3 -29 -19 -54
-50 -24 -30 -54 -64 -67 -74 -18 -14 -21 -22 -14 -36 6 -11 8 -81 5 -170 -6
-144 -7 -153 -26 -153 -20 0 -20 4 -12 357 6 324 12 423 23 370 2 -9 8 -15 13
-12z m523 19 c13 -5 16 -26 16 -130 0 -107 2 -124 16 -124 13 0 15 10 14 53
-6 130 0 207 14 207 19 0 28 -77 24 -182 -3 -59 -1 -78 9 -78 10 0 13 29 13
123 0 68 3 127 7 130 3 4 12 2 20 -4 18 -16 19 -354 1 -366 -7 -4 -40 -10 -73
-13 -48 -4 -59 -8 -55 -20 3 -8 6 -84 8 -168 l3 -154 -23 4 c-21 3 -23 8 -23
61 3 495 6 667 9 667 2 0 11 -3 20 -6z m209 -62 c11 -141 8 -320 -5 -324 -10
-4 -10 -10 1 -31 13 -24 13 -93 1 -294 0 -2 -6 -3 -14 -3 -18 0 -22 106 -18
466 2 202 5 251 16 251 9 0 15 -20 19 -65z m-923 -428 c0 -241 0 -244 -21
-244 -21 0 -21 2 -18 243 2 133 4 245 6 249 2 4 10 5 18 1 13 -4 15 -44 15
-249z m135 203 c-1 -20 -2 -129 -3 -242 -2 -198 -3 -205 -22 -205 -19 0 -20 7
-20 123 0 68 3 179 7 246 5 104 8 121 22 119 11 -2 16 -14 16 -41z m-1030 -70
c-1 -31 -2 -134 -3 -228 l-2 -170 -22 3 -23 3 2 205 c3 230 6 253 31 248 14
-3 17 -14 17 -61z m55 -185 c0 -180 -3 -202 -27 -202 -14 0 -15 18 -10 138 4
75 7 165 7 200 0 56 2 62 15 48 12 -12 15 -47 15 -184z m1500 -13 c0 -157 -1
-170 -17 -167 -16 3 -18 20 -21 157 -2 137 -1 155 15 167 10 7 19 14 21 14 1
0 2 -77 2 -171z m-1424 37 c-3 -49 -6 -122 -6 -163 0 -71 -1 -74 -22 -71 -19
2 -23 9 -22 36 0 17 1 97 2 177 l2 145 26 -17 c26 -17 27 -18 20 -107z m704
-46 l-2 -170 -24 0 -24 0 0 154 c0 127 3 157 16 170 8 9 20 16 25 16 6 0 9
-66 9 -170z m313 13 c-5 -177 -6 -183 -29 -183 -15 0 -15 15 -9 158 7 144 14
182 35 182 4 0 6 -71 3 -157z m-2050 -180 c-2 -181 -6 -338 -9 -351 -4 -19 -7
-21 -25 -11 -21 11 -21 14 -13 337 6 283 9 329 23 339 9 7 19 13 23 13 3 0 4
-147 1 -327z m132 -48 c-4 -203 -8 -371 -9 -372 -1 -1 -11 0 -21 3 -19 5 -20
14 -18 242 2 130 5 296 9 367 5 123 7 131 26 131 21 0 21 -2 13 -371z m208 73
c-3 -167 -8 -365 -11 -441 -7 -129 -8 -137 -24 -125 -17 12 -17 40 -11 426 5
336 9 417 20 428 8 8 18 14 22 14 5 0 6 -136 4 -302z m907 230 c0 -40 -3 -117
-7 -170 -5 -85 -8 -98 -24 -98 -10 0 -21 5 -24 10 -3 6 -3 80 1 165 7 158 7
158 47 164 4 0 7 -32 7 -71z m926 -27 c-3 -41 -6 -107 -6 -148 0 -68 -2 -73
-21 -73 -17 0 -20 4 -15 23 3 12 6 84 6 160 0 137 0 137 21 125 19 -12 21 -19
15 -87z m-2248 81 c10 -7 11 -76 5 -330 -6 -303 -7 -322 -25 -322 -17 0 -18
11 -18 148 0 199 12 512 19 512 3 0 12 -4 19 -8z m572 -162 c0 -163 -1 -170
-20 -170 -19 0 -20 7 -20 160 0 141 2 160 18 169 9 6 18 11 20 11 1 0 2 -76 2
-170z m66 111 c-3 -25 -5 -99 -5 -163 -1 -111 -2 -118 -21 -118 -18 0 -20 7
-20 88 0 48 3 124 6 168 6 73 9 81 26 76 15 -4 18 -12 14 -51z m888 53 c14 -5
16 -29 16 -165 0 -152 -1 -159 -20 -159 -19 0 -20 7 -20 165 0 91 2 165 4 165
2 0 11 -3 20 -6z m146 -159 c0 -158 -1 -165 -20 -165 -19 0 -20 7 -20 125 0
102 3 127 15 131 9 4 15 19 15 40 0 19 2 34 5 34 3 0 5 -74 5 -165z m790 9 l0
-144 -30 0 -30 0 0 148 0 149 30 -5 30 -4 0 -144z m270 6 c0 -143 -1 -150 -20
-150 -19 0 -20 7 -20 144 0 141 2 152 33 155 4 1 7 -66 7 -149z m196 -137 c-3
-7 -12 -13 -21 -13 -13 0 -15 21 -15 144 0 130 2 145 18 148 15 3 17 -9 20
-131 1 -74 0 -141 -2 -148z m194 140 c0 -133 -1 -143 -19 -143 -17 0 -18 11
-20 136 -1 74 1 139 3 143 3 4 12 8 21 8 13 0 15 -21 15 -144z m-1880 -22 c0
-150 -1 -159 -20 -164 -19 -5 -20 0 -20 159 0 157 1 164 20 164 19 0 20 -7 20
-159z m230 4 l0 -155 -29 0 c-27 0 -30 3 -33 38 -2 20 -2 90 0 155 l3 117 30
0 29 0 0 -155z m268 -2 c-3 -150 -4 -158 -23 -158 -18 0 -20 6 -19 55 1 30 2
101 3 158 1 95 2 102 21 102 20 0 20 -5 18 -157z m922 13 c0 -114 -3 -145 -14
-149 -8 -3 -17 -3 -20 0 -3 4 -6 71 -6 150 0 136 1 143 20 143 19 0 20 -7 20
-144z m-290 -26 c0 -123 -1 -130 -20 -130 -19 0 -20 7 -20 112 0 93 3 114 18
129 9 10 18 18 20 18 1 1 2 -57 2 -129z m-1820 -320 c0 -5 -5 -10 -11 -10 -5
0 -7 5 -4 10 3 6 8 10 11 10 2 0 4 -4 4 -10z m2045 -100 c3 -5 2 -10 -4 -10
-5 0 -13 5 -16 10 -3 6 -2 10 4 10 5 0 13 -4 16 -10z m-1400 -26 c-44 -7 -283
-9 -278 -1 2 4 70 6 151 6 81 -1 138 -3 127 -5z m2162 -71 c-3 -10 -5 -4 -5
12 0 17 2 24 5 18 2 -7 2 -21 0 -30z m0 -210 c-3 -10 -5 -2 -5 17 0 19 2 27 5
18 2 -10 2 -26 0 -35z"/>
<path d="M5160 1210 c0 -5 7 -10 15 -10 8 0 15 5 15 10 0 6 -7 10 -15 10 -8 0
-15 -4 -15 -10z"/>
<path d="M5182 1148 c-27 -13 -25 -43 3 -43 11 -1 26 -4 33 -9 7 -4 14 -1 18
8 3 9 12 16 20 16 19 0 18 26 -2 34 -22 8 -45 6 -72 -6z"/>
<path d="M5179 1054 c-9 -11 -10 -20 -2 -32 15 -24 52 -27 61 -5 4 10 14 18
22 18 8 0 16 8 18 18 3 14 -4 17 -41 17 -28 0 -49 -6 -58 -16z"/>
<path d="M6354 1137 c-36 -32 -36 -83 1 -114 14 -13 30 -23 35 -23 5 0 10 26
12 57 2 46 7 59 21 61 14 3 17 -4 17 -49 0 -59 14 -57 25 3 6 31 3 41 -19 62
-31 32 -57 33 -92 3z m26 -81 c0 -14 -4 -28 -10 -31 -6 -4 -10 7 -10 24 0 17
5 31 10 31 6 0 10 -11 10 -24z"/>
<path d="M7063 1142 c-39 -31 -38 -98 1 -124 27 -19 36 -7 36 47 0 54 0 55 30
55 28 0 30 -3 30 -35 0 -19 5 -35 10 -35 20 0 10 61 -15 85 -28 29 -61 32 -92
7z"/>
<path d="M7300 1045 c0 -33 4 -45 15 -45 9 0 15 9 15 25 0 32 27 34 32 3 4
-32 20 -28 29 6 11 40 -4 56 -52 56 l-39 0 0 -45z"/>
<path d="M5640 2653 c0 -256 -28 -1344 -37 -1450 -5 -67 -4 -73 13 -73 19 0
20 10 22 203 1 111 6 434 12 717 12 644 12 660 0 660 -6 0 -10 -26 -10 -57z"/>
<path d="M5709 2628 c0 -46 -2 -96 -4 -113 -2 -16 -6 -244 -9 -505 -3 -261 -9
-557 -13 -657 -4 -127 -3 -183 5 -183 6 0 13 12 16 28 3 15 8 238 11 497 3
259 8 593 11 743 4 194 3 272 -5 272 -7 0 -11 -30 -12 -82z"/>
<path d="M5766 2538 c-6 -172 -13 -495 -21 -1015 -3 -170 -1 -273 5 -273 16 0
19 34 24 340 17 867 19 1120 9 1120 -7 0 -13 -63 -17 -172z"/>
<path d="M5896 2308 c-3 -222 -9 -566 -13 -765 -4 -257 -3 -363 5 -363 17 0
21 93 27 605 3 264 8 580 12 703 5 194 4 222 -9 222 -13 0 -16 -54 -22 -402z"/>
<path d="M5970 2603 c0 -60 -5 -402 -11 -761 -7 -359 -9 -656 -5 -659 4 -4 11
-2 15 6 5 7 11 238 15 514 3 276 9 616 12 755 6 229 5 252 -10 252 -14 0 -16
-15 -16 -107z"/>
<path d="M6101 1949 c-7 -419 -10 -764 -7 -767 3 -3 9 -2 13 2 5 4 11 287 15
629 3 342 9 684 12 760 4 108 3 137 -7 137 -10 0 -16 -155 -26 -761z"/>
<path d="M6296 2599 c-8 -130 -5 -199 6 -199 4 0 8 26 8 58 1 43 3 53 11 39 6
-11 8 -92 5 -222 l-5 -205 25 0 c23 0 24 3 24 68 2 260 11 372 31 372 9 0 11
-52 11 -298 -1 -141 0 -143 21 -140 16 2 22 10 23 28 1 14 4 59 8 100 3 41 9
116 12 165 3 50 12 103 20 119 7 16 11 32 8 37 -3 5 2 6 10 3 9 -3 16 -14 16
-23 0 -10 3 -21 8 -25 4 -4 8 -12 8 -17 1 -5 2 -12 3 -16 0 -4 7 2 15 13 11
14 14 15 14 4 -2 -36 3 -60 12 -60 6 0 9 3 8 8 -3 13 14 92 21 96 9 6 35 -24
39 -45 2 -8 10 -19 18 -25 7 -6 14 -16 14 -23 0 -6 3 -10 8 -10 4 1 16 1 27 0
17 -1 18 -3 5 -11 -12 -8 -12 -10 -1 -10 20 0 54 42 40 50 -7 5 -5 9 6 14 10
3 15 12 11 21 -8 22 8 18 38 -10 15 -14 22 -25 16 -25 -6 0 -8 -4 -5 -10 10
-16 38 -12 32 4 -4 9 2 17 14 21 10 4 19 15 19 25 0 10 4 22 10 25 6 4 7 -1 3
-11 -4 -12 -3 -15 6 -10 7 5 10 17 7 28 -5 20 -4 20 13 2 21 -23 25 -74 26
-276 l0 -148 41 0 41 0 6 227 c4 124 7 261 7 304 l0 77 -370 -2 c-306 -1 -372
1 -379 13 -6 8 -11 -30 -15 -100z"/>
<path d="M7949 2705 c-3 -2 -157 -6 -342 -7 l-337 -3 2 -160 c1 -88 3 -136 5
-106 4 49 20 79 44 81 5 0 29 -46 32 -60 0 -3 7 -11 15 -19 11 -11 11 -15 0
-22 -10 -7 -10 -9 0 -9 6 0 12 -11 12 -24 0 -13 7 -27 16 -30 23 -9 27 -8 21
8 -3 8 -3 16 0 19 3 3 6 26 8 51 1 25 9 52 18 60 13 13 16 13 31 -3 9 -10 16
-23 16 -29 0 -7 11 -12 24 -12 19 0 25 7 30 38 6 38 41 90 53 78 3 -3 7 -14 8
-24 12 -103 18 -122 39 -122 18 -1 19 -2 6 -13 -20 -16 -23 -37 -6 -37 9 0 12
-8 8 -25 -2 -14 1 -32 8 -40 9 -11 10 -18 1 -29 -9 -11 -8 -15 5 -20 23 -9 24
-8 23 17 -1 20 2 64 17 233 l5 62 30 -11 c35 -14 38 -22 40 -117 1 -62 3 -71
12 -50 6 14 9 29 8 34 -1 5 5 6 14 3 10 -4 15 -1 15 11 0 9 5 34 11 55 11 39
29 42 29 4 0 -12 2 -49 6 -82 3 -33 6 -75 7 -92 0 -18 3 -33 7 -33 3 0 7 -23
8 -52 0 -28 5 -55 11 -61 6 -6 8 9 8 39 -2 33 3 53 13 62 13 10 13 12 1 10
-12 -2 -15 10 -15 57 -1 33 2 62 6 65 4 3 9 34 11 68 1 33 6 64 10 68 4 4 7 2
7 -6 0 -10 3 -10 15 0 12 10 15 10 15 -3 0 -9 -5 -19 -10 -22 -6 -4 -4 -12 5
-21 8 -9 15 -25 16 -37 0 -12 2 -57 4 -99 2 -55 0 -78 -8 -78 -9 0 -9 -2 0 -8
8 -5 11 -33 10 -85 -2 -74 -1 -77 21 -77 l22 0 0 305 0 305 -43 0 c-24 0 -46
-2 -48 -5z m-194 -145 c3 -5 1 -10 -4 -10 -6 0 -11 5 -11 10 0 6 2 10 4 10 3
0 8 -4 11 -10z"/>
<path d="M8176 2318 c-15 -951 -16 -1138 -7 -1138 5 0 11 159 15 373 14 911
16 1157 7 1157 -5 0 -11 -174 -15 -392z"/>
<path d="M8306 2308 c-3 -222 -9 -571 -12 -775 -5 -276 -4 -373 5 -373 8 0 11
44 12 148 0 81 2 161 4 177 8 78 15 1225 7 1225 -5 0 -12 -169 -16 -402z"/>
<path d="M8380 2649 c0 -34 -5 -374 -11 -756 -6 -382 -8 -697 -5 -701 3 -3 8
-3 10 -1 3 3 7 243 11 534 3 292 8 632 11 758 4 157 2 227 -5 227 -7 0 -11
-25 -11 -61z"/>
<path d="M8446 2673 c-3 -21 -8 -370 -12 -775 -5 -545 -4 -738 5 -738 8 0 11
42 11 138 0 289 10 1182 15 1295 3 66 1 117 -4 117 -5 0 -12 -17 -15 -37z"/>
<path d="M8507 2168 c-4 -298 -7 -638 -7 -757 0 -235 -6 -297 -24 -282 -9 7
-11 1 -8 -24 l4 -35 -86 0 c-47 0 -86 -4 -86 -8 0 -5 7 -17 16 -28 11 -13 17
-15 20 -6 9 19 24 14 24 -8 0 -11 5 -20 10 -20 6 0 10 9 10 20 0 22 34 28 46
9 4 -8 9 -8 17 0 16 16 47 13 47 -4 0 -8 4 -15 9 -15 13 0 20 251 27 1008 4
440 3 692 -3 692 -6 0 -12 -206 -16 -542z"/>
<path d="M8576 2328 c-3 -211 -8 -556 -12 -767 -3 -242 -2 -381 4 -377 6 3 12
257 16 643 3 351 9 693 12 761 3 75 2 122 -4 122 -6 0 -12 -149 -16 -382z"/>
<path d="M8648 2613 c-1 -54 -3 -123 -4 -153 -10 -418 -15 -1283 -6 -1275 7 7
13 255 17 745 3 404 8 745 11 758 2 12 0 22 -6 22 -6 0 -11 -39 -12 -97z"/>
<path d="M8706 2438 c-11 -501 -12 -1431 -1 -1435 7 -2 11 188 12 555 1 306 5
691 8 855 4 187 3 297 -3 297 -6 0 -12 -109 -16 -272z"/>
<path d="M8777 2283 c-4 -236 -10 -625 -13 -865 -6 -358 -9 -438 -20 -438 -8
0 -14 -9 -14 -19 0 -11 -3 -26 -6 -34 -3 -9 2 -16 14 -19 19 -5 19 -18 14
-457 -4 -334 -2 -451 7 -451 8 0 11 111 11 418 0 229 3 505 5 612 7 246 25
1397 25 1559 0 66 -4 121 -8 121 -5 0 -12 -192 -15 -427z"/>
<path d="M8850 2572 c0 -381 -22 -1407 -31 -1410 -11 -4 -12 -122 -1 -122 4 0
14 10 21 22 12 19 16 116 22 518 11 737 11 1130 -1 1130 -6 0 -10 -53 -10
-138z"/>
<path d="M8915 1963 c-4 -412 -9 -760 -11 -775 -3 -31 12 -48 20 -21 10 36 19
1543 9 1543 -7 0 -13 -265 -18 -747z"/>
<path d="M8989 2483 c0 -126 -4 -514 -8 -863 -20 -1509 -21 -1620 -7 -1620 13
0 17 203 33 1973 5 556 3 737 -5 737 -9 0 -12 -62 -13 -227z"/>
<path d="M9056 2328 c-12 -768 -13 -1138 -5 -1144 5 -3 11 1 13 8 10 30 17
1518 8 1518 -6 0 -12 -149 -16 -382z"/>
<path d="M9146 2193 c-4 -285 -9 -627 -12 -759 -3 -150 -2 -244 4 -248 13 -8
20 251 28 962 3 352 2 562 -4 562 -6 0 -12 -202 -16 -517z"/>
<path d="M9217 2388 c-4 -178 -7 -449 -7 -603 0 -154 -3 -357 -7 -452 l-6
-172 -41 -3 -41 -3 -5 -100 c-5 -80 -3 -102 9 -111 12 -10 13 -76 7 -478 -4
-301 -3 -466 3 -466 11 0 15 157 19 754 1 197 5 363 8 367 3 5 14 9 26 9 l21
0 -8 -565 c-5 -413 -4 -565 4 -565 7 0 11 39 11 122 0 136 17 1662 24 2226 3
199 2 362 -3 362 -4 0 -11 -145 -14 -322z"/>
<path d="M9276 1948 c-4 -420 -10 -780 -13 -800 -4 -29 -2 -38 9 -38 13 0 16
59 21 407 10 567 9 1193 -1 1193 -5 0 -12 -343 -16 -762z"/>
<path d="M9346 2238 c-13 -1054 -13 -1128 1 -1128 10 0 13 52 13 268 0 147 3
507 7 800 4 367 3 532 -4 532 -7 0 -13 -155 -17 -472z"/>
<path d="M9410 2188 c0 -541 -7 -979 -16 -1106 -7 -89 -18 -102 -87 -102 l-52
0 3 -487 c1 -268 5 -489 7 -492 3 -2 7 -2 9 0 3 2 6 174 7 380 1 207 4 419 7
471 4 89 6 95 25 90 19 -5 20 -10 12 -474 -5 -307 -4 -468 3 -468 18 0 20 59
21 492 1 235 4 434 7 442 3 8 14 16 24 19 18 5 19 -9 13 -474 -5 -360 -3 -479
5 -479 9 0 13 70 14 258 1 141 3 273 3 292 1 19 5 456 9 970 3 514 9 992 12
1063 5 111 3 127 -10 127 -14 0 -16 -55 -16 -522z"/>
<path d="M9480 2413 c0 -278 -3 -509 -15 -1158 -8 -490 -11 -1255 -4 -1255 11
0 15 70 18 335 1 138 6 592 11 1010 13 1011 13 1365 0 1365 -6 0 -10 -106 -10
-297z"/>
<path d="M9546 2488 c-9 -363 -14 -1468 -6 -1468 4 0 11 78 14 173 9 274 14
1517 6 1517 -4 0 -10 -100 -14 -222z"/>
<path d="M9607 1803 c-4 -500 -10 -1109 -14 -1355 -4 -296 -3 -448 4 -448 14
0 22 425 30 1648 4 708 3 1062 -4 1062 -6 0 -12 -312 -16 -907z"/>
<path d="M9678 2298 c-1 -227 -3 -426 -4 -443 -1 -16 -5 -441 -9 -942 -6 -685
-5 -913 4 -913 16 0 14 -86 25 1553 6 846 5 1157 -3 1157 -8 0 -12 -118 -13
-412z"/>
<path d="M9749 2548 c0 -90 -2 -199 -4 -243 -2 -44 -6 -581 -10 -1192 -6
-1007 -5 -1113 9 -1113 14 0 16 48 16 453 0 248 3 858 7 1355 5 680 3 902 -5
902 -9 0 -12 -47 -13 -162z"/>
<path d="M9816 1963 c-3 -412 -8 -1021 -11 -1355 -6 -546 -4 -608 9 -608 14 0
16 73 16 693 0 382 3 991 7 1355 4 457 3 662 -4 662 -7 0 -13 -239 -17 -747z"/>
<path d="M9889 2518 c-1 -106 -3 -204 -4 -217 -8 -83 -16 -2301 -8 -2301 13 0
21 540 22 1440 1 377 4 817 7 978 4 208 3 292 -5 292 -8 0 -11 -61 -12 -192z"/>
<path d="M9956 2418 c-13 -646 -19 -2418 -7 -2418 8 0 11 60 11 203 0 589 11
2260 15 2375 3 73 1 132 -4 132 -5 0 -11 -132 -15 -292z"/>
<path d="M10016 2108 c-13 -1158 -12 -2108 1 -2108 10 0 13 162 15 758 l3 757
33 3 32 3 0 -465 c0 -255 3 -471 6 -480 3 -9 10 -13 15 -10 5 3 9 -5 10 -18 0
-23 0 -23 9 -2 8 20 18 22 132 28 68 3 255 8 416 11 239 5 293 4 287 -7 -3 -7
0 -4 9 6 11 13 32 20 71 23 51 3 57 2 62 -17 3 -12 9 -17 12 -11 4 6 92 12
236 16 127 3 312 7 412 10 l183 5 5 -22 c2 -13 6 -41 8 -63 2 -22 4 -7 5 33
l2 72 65 0 c64 0 65 0 66 -27 1 -17 3 -21 6 -10 2 9 10 17 16 18 7 1 21 2 32
3 11 1 58 3 105 4 59 2 80 5 70 12 -10 6 -11 10 -2 10 17 0 16 80 -2 94 -12 9
-13 72 -5 416 5 223 11 434 14 470 l6 65 -183 99 c-211 114 -675 362 -858 458
-69 36 -293 156 -499 267 l-374 201 -101 0 -101 0 -2 -1002 c-3 -1013 -4
-1041 -37 -1008 -5 5 -7 445 -4 1009 3 785 1 1001 -9 1001 -9 0 -12 -27 -10
-102 1 -57 1 -512 -1 -1011 l-2 -908 -22 3 -23 3 4 1008 c3 754 1 1007 -8
1007 -8 0 -11 -65 -11 -237 0 -296 -10 -914 -16 -930 -2 -7 -18 -13 -35 -13
l-32 0 7 590 c5 376 4 590 -2 590 -6 0 -12 -228 -16 -602z m284 553 c6 -13 8
-336 3 -990 l-6 -971 -25 0 -25 0 7 748 c7 863 15 1232 27 1232 5 0 13 -9 19
-19z m68 -33 c8 -8 10 -240 6 -912 -3 -496 -7 -928 -10 -961 -4 -53 -8 -61
-26 -62 l-21 -2 7 922 c6 873 10 1027 25 1027 4 0 12 -5 19 -12z m62 -33 c10
-12 11 -212 5 -954 -7 -907 -8 -939 -26 -944 -18 -5 -19 12 -19 562 0 669 10
1351 20 1351 4 0 13 -7 20 -15z m74 -860 c-3 -445 -7 -861 -10 -922 -6 -104
-8 -113 -26 -113 -19 0 -19 8 -14 723 4 397 9 822 12 944 6 216 7 222 24 200
17 -21 18 -63 14 -832z m67 157 c-2 -339 -5 -630 -6 -647 -1 -16 -3 -146 -4
-287 l-1 -258 -26 0 -26 0 6 228 c3 125 8 526 11 892 3 366 8 678 12 694 5 26
6 27 22 12 15 -15 16 -71 12 -634z m56 603 c14 -14 14 -106 8 -853 -4 -460 -9
-850 -11 -867 -1 -16 -3 -40 -3 -52 -1 -17 -7 -23 -23 -23 l-21 0 7 538 c9
765 18 1272 23 1272 3 0 11 -7 20 -15z m79 -605 c-3 -300 -9 -690 -13 -867 -6
-315 -7 -323 -26 -323 -20 0 -20 3 -14 718 4 394 10 792 14 885 6 166 6 167
26 150 19 -18 20 -28 13 -563z m67 186 c-4 -720 -15 -1361 -23 -1370 -5 -5
-16 -6 -24 -3 -13 5 -15 29 -11 169 3 90 7 464 10 833 3 369 8 684 11 702 6
30 7 31 23 16 14 -15 16 -52 14 -347z m67 230 c0 -28 -5 -397 -11 -821 -10
-770 -11 -784 -43 -785 -10 0 0 1557 11 1647 6 53 6 53 24 31 13 -14 19 -37
19 -72z m53 -436 c-2 -267 -6 -639 -9 -828 -6 -336 -7 -342 -27 -342 l-20 0 6
678 c9 841 14 984 36 980 14 -3 16 -51 14 -488z m56 451 c11 -7 12 -136 6
-810 l-8 -801 -24 0 -24 0 5 408 c16 1068 19 1212 25 1212 3 0 12 -4 20 -9z
m70 -415 c-1 -209 -5 -565 -8 -791 -6 -400 -6 -410 -26 -410 -19 0 -20 7 -17
420 3 541 13 1168 19 1178 3 4 11 3 19 -4 12 -9 14 -75 13 -393z m76 344 c17
-19 18 -50 15 -517 -1 -274 -4 -511 -5 -528 -1 -16 -3 -132 -4 -257 l-1 -228
-36 0 -35 0 6 633 c3 347 8 696 11 775 6 149 12 163 49 122z m85 -323 c0 -140
-3 -470 -7 -735 l-6 -482 -24 0 -23 0 5 557 c3 307 8 599 10 648 2 50 4 139 5
199 l0 110 20 -22 c19 -20 20 -35 20 -275z m70 33 c0 -108 -3 -434 -7 -723
l-6 -527 -25 0 -24 0 7 708 c3 389 8 722 11 740 5 33 6 33 25 16 18 -16 19
-32 19 -214z m48 181 c16 -9 15 16 13 -833 l-1 -598 -25 0 -25 0 1 543 c2 610
8 897 17 897 4 0 13 -4 20 -9z m80 -586 c-5 -826 -5 -835 -29 -835 -20 0 -21
3 -18 537 2 296 5 605 7 686 4 146 5 148 24 130 18 -17 19 -33 16 -518z m66
449 c3 -24 3 -324 -1 -664 l-6 -620 -23 0 -22 0 5 653 c2 358 6 663 9 675 8
37 30 10 38 -44z m66 -636 l0 -648 -25 0 -25 0 0 163 c0 90 3 387 7 659 6 478
7 496 25 485 17 -11 18 -42 18 -659z m54 616 c14 -14 16 -71 16 -482 0 -257
-3 -538 -7 -624 -6 -145 -8 -158 -25 -158 -17 0 -18 22 -18 533 0 462 6 747
16 747 1 0 10 -7 18 -16z m82 -66 c3 -11 3 -285 -1 -609 l-8 -589 -23 0 -24 0
6 553 c5 613 8 679 29 670 8 -2 17 -14 21 -25z m58 -10 c12 -8 13 -74 9 -770
l-3 -418 -27 0 -26 0 7 595 c6 545 11 657 24 614 3 -7 10 -17 16 -21z m71
-273 c0 -121 -2 -375 -5 -565 l-5 -345 -22 -3 -23 -3 6 528 c2 290 7 557 10
591 6 63 6 63 22 40 15 -20 17 -54 17 -243z m60 -353 c-4 -301 -11 -551 -15
-556 -5 -5 -16 -6 -25 -2 -15 5 -16 39 -11 373 4 203 9 455 12 560 6 189 7
192 26 182 20 -11 20 -17 13 -557z m61 -19 c-4 -290 -8 -529 -9 -530 -1 0 -11
-3 -22 -5 -20 -3 -20 2 -17 352 1 195 5 444 8 552 l6 196 21 -18 c20 -19 20
-25 13 -547z m70 357 c-3 -69 -9 -297 -12 -507 l-6 -383 -25 0 -25 0 6 238 c3
130 8 361 12 512 3 151 8 284 11 294 5 19 7 19 25 -4 18 -23 19 -35 14 -150z
m53 -288 c-4 -207 -8 -428 -9 -489 l0 -113 -25 0 -25 0 5 103 c2 56 7 284 10
507 6 364 8 406 23 418 15 11 18 9 23 -18 4 -17 3 -201 -2 -408z m90 78 c-1
-162 -4 -380 -8 -484 l-6 -189 -34 -3 -33 -4 7 492 c4 271 9 496 11 500 2 3
18 1 34 -5 l30 -11 -1 -296z m66 -149 c-3 -201 -8 -403 -11 -448 -5 -75 -8
-83 -26 -83 -20 0 -20 3 -14 423 4 232 9 444 13 472 l5 49 20 -24 c18 -23 19
-38 13 -389z m55 359 c13 -8 15 -64 11 -432 -2 -232 -4 -429 -6 -437 -1 -9
-12 -17 -23 -19 l-22 -3 0 263 c0 298 10 638 19 638 3 0 13 -5 21 -10z m78
-348 c-1 -174 -4 -368 -6 -430 -3 -110 -4 -113 -25 -110 l-22 3 3 285 c1 157
5 353 8 437 6 146 7 152 25 142 19 -10 19 -24 17 -327z m-161 -638 c-3 -3 -12
-4 -19 -1 -8 3 -5 6 6 6 11 1 17 -2 13 -5z m96 -1 c-13 -2 -35 -2 -50 0 -16 2
-5 4 22 4 28 0 40 -2 28 -4z m64 1 c-3 -3 -12 -4 -19 -1 -8 3 -5 6 6 6 11 1
17 -2 13 -5z m-489 -11 c-32 -2 -84 -2 -115 0 -32 2 -6 3 57 3 63 0 89 -1 58
-3z"/>
<path d="M10875 2700 c3 -5 13 -10 21 -10 8 0 14 -5 14 -12 0 -6 3 -9 6 -5 7
6 132 -53 175 -84 14 -10 37 -21 52 -24 15 -4 27 -11 27 -16 0 -5 3 -8 8 -7
12 4 72 -32 72 -43 0 -6 5 -7 10 -4 6 4 16 2 23 -3 14 -11 174 -99 257 -140
30 -15 58 -31 62 -37 4 -5 8 -6 8 -2 0 4 20 -6 45 -23 25 -17 45 -27 45 -23 0
4 4 4 8 -2 4 -5 38 -26 76 -45 207 -105 261 -134 266 -140 3 -4 57 -33 120
-64 63 -32 129 -66 147 -76 l32 -19 1 369 0 369 -80 26 c-78 24 -91 25 -324
25 -216 0 -251 -2 -309 -20 -85 -26 -168 -63 -240 -107 l-59 -35 -101 52 c-56
29 -111 60 -122 69 -11 9 -30 22 -42 29 -28 15 -207 17 -198 2z m1455 -675 c0
-5 -35 11 -122 55 -38 19 -68 37 -68 41 0 3 43 -16 95 -43 52 -27 95 -51 95
-53z"/>
<path d="M7506 2421 c-3 -5 0 -13 7 -19 10 -8 13 -6 13 9 0 20 -11 25 -20 10z"/>
<path d="M6847 2385 c3 -8 9 -12 14 -9 12 7 11 11 -5 17 -10 4 -13 1 -9 -8z"/>
<path d="M6291 2293 c2 -108 6 -100 11 20 2 42 0 77 -4 77 -5 0 -7 -44 -7 -97z"/>
<path d="M7400 2285 c0 -8 4 -15 10 -15 5 0 7 7 4 15 -4 8 -8 15 -10 15 -2 0
-4 -7 -4 -15z"/>
<path d="M7677 2224 c-4 -4 -7 -14 -7 -23 0 -11 3 -12 11 -4 6 6 10 16 7 23
-2 6 -7 8 -11 4z"/>
<path d="M7898 2125 c-4 -17 -1 -25 8 -25 8 0 14 11 14 25 0 14 -4 25 -9 25
-5 0 -11 -11 -13 -25z"/>
<path d="M7665 2131 c-3 -5 -1 -12 5 -16 5 -3 10 1 10 9 0 18 -6 21 -15 7z"/>
<path d="M6285 2080 c-3 -5 -1 -10 4 -10 6 0 11 5 11 10 0 6 -2 10 -4 10 -3 0
-8 -4 -11 -10z"/>
<path d="M7478 2063 c-172 -3 -228 -6 -228 -16 0 -9 85 -11 385 -9 265 3 385
1 385 -7 0 -11 -54 -24 -86 -21 -45 5 -75 0 -68 -12 5 -7 2 -9 -7 -6 -8 3 -23
9 -34 13 -16 6 -17 5 -5 -4 8 -6 10 -11 5 -11 -6 0 -17 6 -23 12 -10 10 -15
10 -20 1 -4 -6 -24 -14 -45 -18 -30 -6 -37 -4 -37 9 0 12 -10 16 -40 16 -29 0
-40 -4 -40 -15 0 -10 -11 -15 -35 -15 -19 0 -35 4 -35 9 0 5 -13 9 -30 9 -16
-1 -30 -5 -30 -10 0 -4 -13 -8 -30 -8 -16 0 -30 5 -30 10 0 17 -67 12 -74 -6
-4 -11 -17 -15 -43 -12 -29 2 -41 9 -50 28 -11 25 -11 25 -12 -10 l-1 -35 131
2 c73 0 150 4 173 7 23 3 55 2 71 -3 22 -7 25 -10 10 -11 -16 -1 -14 -4 9 -12
25 -9 31 -8 45 10 14 17 28 20 109 21 74 1 94 -2 98 -14 4 -8 15 -15 25 -15
21 0 26 16 7 23 -7 3 0 6 15 6 15 1 38 -8 50 -20 21 -20 22 -26 21 -215 0
-107 3 -194 8 -194 4 0 8 35 8 78 0 42 3 161 7 265 l6 187 -169 -2 c-93 -2
-271 -4 -396 -5z"/>
<path d="M6463 2043 l-193 -3 -1 -158 c0 -86 -2 -205 -5 -264 -3 -70 -1 -108
6 -108 6 0 10 42 11 108 1 199 7 304 18 315 11 11 13 6 15 -78 1 -22 5 -46 9
-52 5 -7 6 -17 3 -22 -3 -5 1 -14 9 -21 21 -18 19 -29 -5 -23 -16 4 -20 0 -20
-21 0 -14 6 -26 13 -26 9 0 9 -2 -1 -9 -8 -5 -13 -23 -12 -42 1 -19 1 -36 0
-39 -7 -19 -8 -48 -3 -67 4 -16 12 -22 29 -21 24 2 41 29 29 47 -3 5 -1 12 5
16 6 4 7 12 3 18 -12 20 -12 296 1 322 14 31 30 27 34 -8 4 -35 12 -34 37 3
11 16 29 30 40 30 11 1 117 1 235 2 272 1 260 7 260 -119 0 -68 3 -93 13 -93
9 0 9 -2 0 -8 -10 -7 -19 -122 -14 -184 1 -19 31 -25 31 -7 0 6 7 9 15 5 8 -3
15 -4 15 -3 0 1 3 107 7 236 l5 234 -53 -7 c-30 -5 -78 -8 -107 -7 -29 1 -51
-2 -49 -6 3 -5 -6 -8 -19 -8 -13 0 -24 3 -24 8 0 4 -24 6 -54 5 -31 -1 -52 -6
-49 -12 4 -5 -6 -7 -25 -3 -17 4 -34 2 -37 -3 -4 -6 -14 -5 -25 3 -16 9 -24 9
-40 -1 -26 -16 -61 -15 -96 3 -37 19 -63 19 -70 0 -6 -14 -8 -13 -19 1 -9 13
-21 16 -52 11 -31 -5 -42 -3 -47 8 -3 8 -4 15 -3 16 9 2 325 10 526 12 182 2
246 6 249 15 4 12 -59 13 -595 5z m567 -367 c0 -3 -4 -8 -10 -11 -5 -3 -10 -1
-10 4 0 6 5 11 10 11 6 0 10 -2 10 -4z m-690 -56 c0 -5 -4 -10 -10 -10 -5 0
-10 5 -10 10 0 6 5 10 10 10 6 0 10 -4 10 -10z m-6 -55 c3 -8 1 -15 -4 -15 -6
0 -10 7 -10 15 0 8 2 15 4 15 2 0 6 -7 10 -15z"/>
<path d="M7199 2013 c-1 -5 0 -69 0 -143 1 -74 -3 -182 -8 -240 -5 -58 -5
-109 0 -114 5 -6 10 -4 13 5 8 24 12 499 4 499 -5 0 -8 -3 -9 -7z"/>
<path d="M6199 1943 c0 -38 -2 -152 -5 -255 -4 -182 -3 -188 16 -188 18 0 20
7 20 58 0 31 3 146 7 255 l6 197 -21 0 c-20 0 -22 -5 -23 -67z"/>
<path d="M7087 1993 c-8 -13 -12 -472 -4 -480 4 -3 7 91 7 211 0 120 4 225 9
235 10 17 -2 50 -12 34z"/>
<path d="M7460 1635 c-7 -8 -14 -30 -17 -50 -4 -28 -1 -35 12 -35 9 0 22 5 29
12 11 10 10 15 -2 27 -13 13 -13 16 1 20 13 5 13 9 3 24 -12 15 -15 15 -26 2z"/>
<path d="M7575 1640 c-3 -5 -2 -10 4 -10 5 0 13 5 16 10 3 6 2 10 -4 10 -5 0
-13 -4 -16 -10z"/>
<path d="M7523 1607 c0 -15 3 -27 8 -27 16 0 18 17 5 35 -13 17 -13 17 -13 -8z"/>
<path d="M7566 1605 c10 -8 23 -15 28 -15 6 0 1 7 -10 15 -10 8 -23 15 -28 15
-6 0 -1 -7 10 -15z"/>
<path d="M7645 1591 c-6 -11 13 -26 22 -17 4 3 0 6 -8 7 -8 0 -6 4 6 9 16 7
17 9 3 9 -9 1 -19 -3 -23 -8z"/>
<path d="M4520 1121 c0 -93 2 -111 15 -111 13 0 15 16 13 107 -2 74 -7 108
-15 111 -10 3 -13 -23 -13 -107z"/>
<path d="M2811 1214 c-1 -7 21 -60 49 -118 27 -59 47 -113 44 -121 -4 -9 0
-15 10 -15 9 0 16 6 15 13 -1 17 -117 254 -118 241z"/>
<path d="M4367 1213 c-4 -3 -7 -34 -7 -67 0 -34 -4 -78 -9 -98 -7 -30 -6 -38
5 -38 8 0 14 1 15 3 0 1 6 43 12 92 l12 90 48 3 c26 2 47 7 47 13 0 10 -113
13 -123 2z"/>
<path d="M2747 1143 c-27 -59 -27 -69 -4 -60 19 7 52 96 40 108 -6 6 -19 -11
-36 -48z"/>
<path d="M2995 1148 c-2 -7 -5 -52 -7 -101 -2 -63 0 -87 9 -87 8 0 13 26 15
83 l3 82 53 3 c37 2 52 7 52 18 0 19 -118 21 -125 2z"/>
<path d="M3191 1147 c-27 -14 -49 -43 -39 -53 4 -3 19 3 34 15 15 11 38 21 53
21 25 1 25 1 7 15 -24 18 -25 18 -55 2z"/>
<path d="M3632 1153 c-18 -7 -4 -23 19 -23 12 0 19 5 17 12 -5 14 -18 18 -36
11z"/>
<path d="M3707 1154 c-4 -4 -7 -50 -7 -101 0 -71 3 -94 13 -91 7 3 14 33 17
84 5 78 5 79 34 84 17 3 30 10 30 15 1 12 -76 19 -87 9z"/>
<path d="M4645 1135 c-31 -30 -34 -84 -7 -108 28 -25 31 -22 34 35 2 41 7 54
21 56 14 3 17 -5 17 -52 0 -31 5 -56 10 -56 6 0 10 22 10 48 0 26 5 53 11 59
8 8 4 15 -12 27 -33 22 -56 20 -84 -9z"/>
<path d="M5864 1146 c-9 -23 0 -51 17 -54 10 -2 19 5 22 17 3 14 11 18 26 14
12 -3 21 -10 21 -15 0 -5 5 -6 10 -3 16 10 12 42 -6 49 -30 11 -84 6 -90 -8z"/>
<path d="M6103 1150 c-24 -10 -29 -26 -14 -49 7 -11 13 -10 36 5 22 14 31 15
46 6 16 -10 19 -9 19 8 0 33 -43 48 -87 30z"/>
<path d="M8090 1147 c-20 -10 -26 -21 -28 -54 -3 -43 11 -83 28 -83 6 0 10 19
10 43 0 46 13 67 42 67 15 0 18 -9 18 -50 0 -68 17 -63 22 6 2 47 0 59 -17 70
-24 17 -43 17 -75 1z"/>
<path d="M8338 1143 c-28 -18 -43 -41 -33 -52 3 -3 16 1 28 8 15 10 22 10 25
2 6 -19 22 -12 22 9 0 28 34 26 48 -2 8 -17 11 -19 11 -6 1 17 -44 58 -63 58
-6 0 -23 -8 -38 -17z"/>
<path d="M8565 1090 c-8 -84 -8 -85 7 -85 7 0 16 22 21 50 4 28 10 57 13 65
10 28 25 -12 22 -62 -2 -47 7 -74 16 -47 2 8 7 44 9 82 l5 67 -43 0 -43 0 -7
-70z"/>
<path d="M9041 1153 c0 -5 -2 -266 -5 -581 -4 -340 -2 -572 3 -572 13 0 18
145 20 630 1 234 6 445 11 470 12 61 13 60 -10 60 -11 0 -20 -3 -19 -7z"/>
<path d="M3402 1126 c2 -15 8 -26 13 -26 15 0 12 43 -3 48 -10 3 -13 -4 -10
-22z"/>
<path d="M3559 1108 c-4 -141 -4 -148 9 -148 9 0 12 26 12 95 0 57 -4 95 -10
95 -5 0 -11 -19 -11 -42z"/>
<path d="M3850 1130 c0 -11 5 -20 10 -20 6 0 10 9 10 20 0 11 -4 20 -10 20 -5
0 -10 -9 -10 -20z"/>
<path d="M4047 1144 c-4 -4 -7 -47 -7 -96 0 -67 3 -89 13 -86 8 3 13 32 15 88
3 77 -5 110 -21 94z"/>
<path d="M3310 1095 c0 -25 -1 -25 -85 -25 -47 0 -85 -3 -85 -6 0 -3 5 -14 10
-25 10 -18 12 -18 36 -3 17 12 39 15 74 12 64 -6 85 7 71 45 -13 34 -21 35
-21 2z"/>
<path d="M8895 1081 c-14 -23 -32 -44 -39 -47 -7 -3 -23 -19 -35 -35 -19 -25
-20 -33 -9 -46 10 -12 12 -110 9 -484 -2 -296 1 -469 7 -469 12 0 22 134 21
260 -1 52 -1 233 0 402 l1 307 26 28 25 28 -5 -512 c-3 -282 -2 -513 3 -513
14 0 21 210 21 625 0 254 4 414 11 439 16 58 -3 68 -36 17z"/>
<path d="M3844 1059 c3 -17 6 -38 6 -45 0 -26 19 -14 22 14 2 22 8 28 36 30
59 6 26 32 -42 32 -27 0 -28 -2 -22 -31z"/>
<path d="M9260 1045 c0 -51 26 -66 32 -17 4 33 32 37 36 5 5 -31 18 -29 27 4
8 34 -14 53 -62 53 -32 0 -33 -1 -33 -45z"/>
<path d="M3400 1014 c0 -64 23 -73 28 -11 3 37 4 37 48 37 32 0 44 4 44 15 0
12 -13 15 -60 15 l-60 0 0 -56z"/>
<path d="M5862 1038 c3 -34 38 -56 38 -24 0 22 16 28 33 11 24 -23 39 -18 35
13 -3 25 -6 27 -56 30 l-53 3 3 -33z"/>
<path d="M6085 1049 c-5 -14 -1 -27 10 -38 15 -15 17 -15 26 2 7 12 20 17 37
15 22 -2 28 2 30 20 3 20 0 22 -47 22 -42 0 -51 -3 -56 -21z"/>
<path d="M3980 1037 c0 -45 -23 -61 -84 -60 -40 1 -56 -2 -53 -10 4 -15 59
-21 104 -12 41 7 68 44 59 80 -8 31 -26 33 -26 2z"/>
<path d="M2686 1010 c-19 -49 -19 -50 -3 -50 6 0 20 14 29 30 16 28 21 30 78
30 47 0 60 3 60 15 0 12 -15 15 -74 15 l-74 0 -16 -40z"/>
<path d="M8290 923 c0 -48 -3 -276 -7 -505 -4 -276 -3 -418 4 -418 10 0 23
474 23 822 0 87 4 158 8 158 5 0 17 -8 26 -19 16 -17 17 -54 10 -490 -5 -354
-4 -471 4 -471 9 0 13 63 14 228 1 125 3 241 4 257 1 17 3 128 3 248 1 210 2
217 21 217 20 0 20 -7 20 -475 0 -276 4 -475 9 -475 5 0 11 202 13 475 3 460
4 475 23 489 16 12 18 17 7 28 -10 10 -17 10 -32 0 -28 -17 -101 -15 -128 4
l-22 15 0 -88z"/>
<path d="M9547 985 c-17 -12 -18 -47 -24 -499 -5 -365 -3 -486 5 -486 9 0 12
47 13 163 0 89 2 173 3 187 1 14 3 154 4 313 2 238 4 287 16 287 19 0 28 26
13 38 -8 7 -18 6 -30 -3z"/>
<path d="M3160 984 c0 -10 63 -34 88 -34 29 0 72 24 61 35 -4 3 -24 2 -45 -3
-22 -4 -54 -5 -71 -1 -18 3 -33 5 -33 3z"/>
<path d="M4135 980 c-11 -17 5 -32 21 -19 7 6 11 15 8 20 -7 12 -21 11 -29 -1z"/>
<path d="M4306 968 c-15 -48 -16 -68 -2 -68 8 0 16 10 18 23 3 21 8 22 106 25
82 2 102 6 102 17 0 12 -20 15 -110 15 -80 0 -112 -3 -114 -12z"/>
<path d="M8012 960 c0 -14 2 -19 5 -12 2 6 2 18 0 25 -3 6 -5 1 -5 -13z"/>
<path d="M8520 955 c0 -16 -6 -25 -15 -25 -13 0 -15 -44 -15 -337 0 -186 -3
-395 -7 -465 -5 -115 -4 -128 10 -128 16 0 17 38 17 450 0 330 3 450 11 450 7
0 18 8 25 18 12 14 13 -56 7 -450 -5 -352 -3 -468 5 -468 9 0 12 96 12 368 0
203 3 417 7 475 5 95 8 107 25 107 17 0 18 -20 18 -475 0 -310 3 -475 10 -475
7 0 10 143 10 408 0 461 5 545 29 540 14 -3 16 -49 12 -476 -3 -310 -1 -472 6
-472 12 0 28 864 18 934 l-7 46 -89 0 c-88 0 -89 0 -89 -25z"/>
<path d="M12150 570 c0 -19 7 -20 100 -20 93 0 100 1 100 20 0 19 -7 20 -100
20 -93 0 -100 -1 -100 -20z"/>
<path d="M11158 574 c-11 -10 -10 -126 1 -143 7 -11 32 -12 127 -7 66 3 232 6
371 6 185 1 253 4 257 13 2 7 5 -90 5 -215 1 -145 5 -228 11 -228 6 0 10 96
10 269 0 148 3 276 6 285 5 13 -12 14 -138 10 -79 -2 -254 -6 -390 -8 -216 -4
-247 -3 -250 10 -2 9 -6 12 -10 8z"/>
<path d="M10525 560 c-192 -4 -351 -8 -353 -9 -2 0 -2 -11 0 -22 3 -22 5 -22
198 -18 107 2 278 4 380 4 l185 0 -2 -260 c0 -146 2 -234 6 -200 4 33 8 162
10 288 l2 227 -38 -2 c-21 -1 -195 -5 -388 -8z"/>
<path d="M6625 490 c-198 -4 -361 -8 -362 -9 -2 0 -3 -15 -3 -32 0 -26 3 -30
18 -23 9 5 182 10 384 12 362 3 366 4 372 24 7 28 -1 38 -27 36 -12 -1 -184
-5 -382 -8z"/>
<path d="M6260 375 c0 -8 2 -15 4 -15 2 0 6 7 10 15 3 8 1 15 -4 15 -6 0 -10
-7 -10 -15z"/>
<path d="M10191 361 c-8 -5 -9 -11 -3 -15 5 -3 12 1 16 9 6 17 6 18 -13 6z"/>
<path d="M7633 343 c8 -7 77 -6 85 2 3 3 -16 5 -43 5 -27 0 -45 -3 -42 -7z"/>
<path d="M6958 332 c-32 -2 -58 -7 -58 -13 0 -5 12 -7 28 -4 25 6 26 5 9 -8
-15 -13 -16 -15 -2 -21 20 -7 19 -26 -1 -26 -8 0 -13 4 -10 9 4 5 -5 4 -18 -2
-14 -7 -21 -14 -17 -17 4 -3 8 -16 8 -29 1 -13 7 -27 13 -31 7 -4 -15 -6 -48
-4 -44 3 -63 0 -72 -11 -15 -18 1 -20 18 -3 6 6 14 9 18 6 3 -4 -4 -12 -16
-18 -18 -9 -25 -8 -41 6 -10 9 -16 21 -13 25 3 5 0 9 -6 9 -6 0 -8 -11 -5 -27
3 -16 2 -22 -1 -15 -3 6 -10 12 -15 12 -6 0 -7 -4 -4 -10 3 -5 1 -10 -4 -10
-6 0 -11 5 -11 10 0 6 -9 10 -20 10 -11 0 -20 6 -20 13 0 9 -2 9 -9 -1 -7 -11
-9 -11 -14 2 -4 9 -13 16 -22 16 -8 0 -15 5 -15 10 0 6 -9 10 -20 10 -11 0
-20 5 -20 11 0 5 4 8 9 5 5 -3 12 1 15 10 4 12 2 15 -9 10 -8 -3 -15 -1 -15 4
0 5 -7 7 -15 4 -9 -4 -15 0 -15 10 0 9 -1 19 -2 22 -2 4 10 8 26 10 15 1 31 5
34 8 6 7 -15 8 -200 10 l-138 1 0 -79 c0 -44 2 -77 4 -75 3 3 14 90 16 126 0
17 120 14 127 -3 7 -19 23 -18 23 1 0 8 5 15 10 15 12 0 11 8 17 -79 2 -41 11
-88 19 -103 8 -16 14 -34 13 -41 -1 -6 -1 -29 0 -49 l1 -38 265 0 265 0 1 123
c0 67 2 141 4 164 2 24 0 44 -3 45 -4 2 -33 2 -64 0z m22 -36 c0 -11 -19 -15
-25 -6 -3 5 1 10 9 10 9 0 16 -2 16 -4z m-23 -52 c-3 -3 -12 -4 -19 -1 -8 3
-5 6 6 6 11 1 17 -2 13 -5z m-16 -67 c-10 -9 -11 -8 -5 6 3 10 9 15 12 12 3
-3 0 -11 -7 -18z m-311 3 c0 -5 -8 -10 -17 -10 -15 0 -16 2 -3 10 19 12 20 12
20 0z m250 -4 c0 -3 -4 -8 -10 -11 -5 -3 -10 -1 -10 4 0 6 5 11 10 11 6 0 10
-2 10 -4z m-200 -20 c0 -2 -9 -6 -20 -9 -11 -3 -18 -1 -14 4 5 9 34 13 34 5z"/>
<path d="M6695 190 c-3 -5 -1 -10 4 -10 6 0 11 5 11 10 0 6 -2 10 -4 10 -3 0
-8 -4 -11 -10z"/>
<path d="M10201 84 c0 -11 3 -14 6 -6 3 7 2 16 -1 19 -3 4 -6 -2 -5 -13z"/>
<path d="M5350 49 c0 -5 5 -7 10 -4 6 3 10 8 10 11 0 2 -4 4 -10 4 -5 0 -10
-5 -10 -11z"/>
<path d="M10192 25 c0 -17 2 -22 5 -12 2 9 2 23 0 30 -3 6 -5 -1 -5 -18z"/>
</g>
</svg>
