<?xml version="1.0" standalone="no"?>
<!DOCTYPE svg PUBLIC "-//W3C//DTD SVG 20010904//EN"
 "http://www.w3.org/TR/2001/REC-SVG-20010904/DTD/svg10.dtd">
<svg version="1.0" xmlns="http://www.w3.org/2000/svg"
 width="503.000000pt" height="391.000000pt" viewBox="0 0 503.000000 391.000000"
 preserveAspectRatio="xMidYMid meet">

<g transform="translate(0.000000,391.000000) scale(0.100000,-0.100000)"
fill="#000000" stroke="none">
<path d="M2400 2824 c-212 -215 -884 -839 -1050 -976 l-45 -37 198 6 197 6 0
-454 c0 -250 3 -478 6 -507 l7 -52 -314 0 c-173 -1 -440 -5 -594 -10 -154 -5
-399 -13 -545 -17 -223 -6 -255 -9 -205 -17 82 -13 4523 -14 4750 -1 l170 10
-130 6 c-71 3 -341 12 -600 18 -258 7 -570 14 -692 18 l-223 5 0 494 0 494
184 0 c101 0 191 3 199 6 10 4 -40 58 -164 177 l-179 172 0 120 c0 66 -3 177
-7 248 l-6 127 -139 0 -138 0 0 -127 0 -128 -97 96 c-54 52 -152 144 -218 204
-66 60 -149 137 -185 172 l-65 63 -115 -116z m267 -426 c87 -84 230 -224 318
-310 l160 -158 -101 -102 c-55 -57 -115 -120 -132 -141 l-32 -38 0 -407 0
-407 -352 3 c-194 2 -359 5 -365 7 -10 3 -13 92 -13 400 l0 396 -137 140 c-76
77 -138 145 -138 150 0 6 620 614 632 618 0 1 72 -68 160 -151z"/>
<path d="M2377 1925 c-70 -73 -127 -138 -127 -143 0 -4 61 -66 135 -136 l135
-127 87 89 c49 49 109 106 136 128 l47 39 -78 85 c-44 47 -108 111 -144 142
l-65 57 -126 -134z"/>
</g>
</svg>
